# xmcd
#
# Track frame offsets:
#	150
#	21300
#	40650
#	61951
#
# Disc length: 1137 seconds
#
# Revision: 1
# Processed by: cddbd v1.5PL3 Copyright (c) Steve Scherf et al.
# Submitted via: CDex 1.50Beta5
#
DISCID=2b046f04
DTITLE=RIKKI+宮沢和史 - からたち野道/朱鷺-トキ-
DYEAR=2003
DGENRE=Pop
TTITLE0=からたち野道
TTITLE1=朱鷺-トキ-
TTITLE2=からたち野道(instrumental)
TTITLE3=巡る想い
EXTD=
EXTT0=
EXTT1=
EXTT2=
EXTT3=
PLAYORDER=
